<?xml version="1.0" encoding="utf-8"?>
<!-- Generator: Adobe Illustrator 24.0.2, SVG Export Plug-In . SVG Version: 6.00 Build 0)  -->
<svg version="1.1" id="图层_1" xmlns="http://www.w3.org/2000/svg" xmlns:xlink="http://www.w3.org/1999/xlink" x="0px" y="0px"
	 viewBox="0 0 128 128" style="enable-background:new 0 0 128 128;" xml:space="preserve">
<style type="text/css">
	.st0{fill:#FFFFFF;}
</style>
<g>
	<path class="st0" d="M27.1,35.6c0,4.7,3.8,8.4,8.4,8.4s8.4-3.8,8.4-8.4s-3.8-8.4-8.4-8.4S27.1,30.9,27.1,35.6z"/>
	<path class="st0" d="M55.6,35.6c0,4.7,3.8,8.4,8.4,8.4s8.4-3.8,8.4-8.4s-3.8-8.4-8.4-8.4S55.6,30.9,55.6,35.6z"/>
	<path class="st0" d="M84,35.6c0,4.7,3.8,8.4,8.4,8.4c4.7,0,8.4-3.8,8.4-8.4s-3.8-8.4-8.4-8.4C87.8,27.1,84,30.9,84,35.6z"/>
	<path class="st0" d="M27.1,64c0,4.7,3.8,8.4,8.4,8.4S44,68.7,44,64s-3.8-8.4-8.4-8.4S27.1,59.3,27.1,64z"/>
	<path class="st0" d="M55.6,64c0,4.7,3.8,8.4,8.4,8.4s8.4-3.8,8.4-8.4s-3.8-8.4-8.4-8.4S55.6,59.3,55.6,64z"/>
	<path class="st0" d="M84,64c0,4.7,3.8,8.4,8.4,8.4c4.7,0,8.4-3.8,8.4-8.4s-3.8-8.4-8.4-8.4C87.8,55.6,84,59.3,84,64z"/>
	<path class="st0" d="M27.1,92.4c0,4.7,3.8,8.4,8.4,8.4s8.4-3.8,8.4-8.4c0-4.7-3.8-8.4-8.4-8.4S27.1,87.8,27.1,92.4z"/>
	<path class="st0" d="M55.6,92.4c0,4.7,3.8,8.4,8.4,8.4s8.4-3.8,8.4-8.4c0-4.7-3.8-8.4-8.4-8.4S55.6,87.8,55.6,92.4z"/>
	<path class="st0" d="M84,92.4c0,4.7,3.8,8.4,8.4,8.4c4.7,0,8.4-3.8,8.4-8.4c0-4.7-3.8-8.4-8.4-8.4C87.8,84,84,87.8,84,92.4z"/>
</g>
<path class="st0" d="M64,0C28.7,0,0,28.7,0,64s28.7,64,64,64s64-28.7,64-64S99.3,0,64,0z M64,121.9C32,121.9,6.1,96,6.1,64
	S32,6.1,64,6.1S121.9,32,121.9,64S96,121.9,64,121.9L64,121.9z"/>
</svg>
