<?xml version="1.0" encoding="utf-8"?>
<!-- Generator: Adobe Illustrator 24.0.2, SVG Export Plug-In . SVG Version: 6.00 Build 0)  -->
<svg version="1.1" id="图层_1" xmlns="http://www.w3.org/2000/svg" xmlns:xlink="http://www.w3.org/1999/xlink" x="0px" y="0px"
	 viewBox="0 0 128 128" style="enable-background:new 0 0 128 128;" xml:space="preserve">
<style type="text/css">
	.st0{fill:#FFFFFF;}
</style>
<path class="st0" d="M44.2,77.6l-5.3,5.3c-0.7,0.6-0.8,1.8-0.2,2.5c0,0.1,0.1,0.1,0.2,0.2c0.7,0.7,1.9,0.7,2.7,0l5.3-5.3
	c0.7-0.6,0.8-1.8,0.2-2.5c0-0.1-0.1-0.1-0.2-0.2C46,77.1,45,77.1,44.2,77.6z M39.6,60.4c0-1-0.7-1.8-1.7-1.9h-0.1h-7.6
	c-1-0.1-2,0.6-2.1,1.6s0.6,2,1.6,2.1c0.2,0,0.3,0,0.5,0h7.4C38.6,62.3,39.5,61.5,39.6,60.4z M64,35.9c1,0,1.8-0.7,1.9-1.7v-0.1v-7.6
	c0.1-1-0.6-2-1.6-2.1s-2,0.6-2.1,1.6c0,0.2,0,0.3,0,0.5V34C62.1,35,62.9,35.9,64,35.9C63.9,35.9,64,35.9,64,35.9z M44.2,43
	c0.7,0.7,1.9,0.7,2.7,0c0.7-0.6,0.8-1.8,0.2-2.5c0-0.1-0.1-0.1-0.2-0.2L41.6,35c-0.7-0.7-1.9-0.7-2.7,0s-0.7,1.9,0,2.7L44.2,43z
	 M82.5,43.6c0.5,0,1-0.2,1.3-0.5l5.3-5.3c0.7-0.7,0.7-1.9,0-2.7s-1.9-0.7-2.7,0l-5.3,5.3c-0.7,0.6-0.8,1.8-0.2,2.5
	c0,0.1,0.1,0.1,0.2,0.2C81.5,43.3,82,43.5,82.5,43.6z M71.9,86.8c1.3-10.5,12.2-12.9,12.2-25.3c0-10.9-8.9-19.8-19.8-19.8
	s-19.8,8.9-19.8,19.8c0,12.4,11.1,14.8,12.2,25.3c-1,0.1-1.7,1.1-1.6,2.1c0.1,0.8,0.8,1.5,1.6,1.6h15.1c1,0,1.8-0.7,1.9-1.7v-0.1
	C73.6,87.7,72.9,86.9,71.9,86.8z M58.7,48.5c-4,1.6-6.9,5-7.9,9.1c0,0.5-0.8,1.1-1.3,1.1h-0.3c-0.8-0.2-1.3-1-1.1-1.8l0,0
	c1.3-5,5-9,9.8-11c0.7-0.3,1.5,0,1.8,0.7v0.1C60,47.5,59.5,48.3,58.7,48.5z M83.8,77.6c-0.7-0.7-1.9-0.7-2.7,0s-0.7,1.9,0,2.7
	l5.3,5.3c0.7,0.7,1.9,0.7,2.7,0c0.7-0.6,0.8-1.8,0.2-2.5c0-0.1-0.1-0.1-0.2-0.2L83.8,77.6z M71.4,96.1h-15c-1.1,0-1.9,0.9-1.9,2
	c0,0.1,0,0.3,0,0.4c0.3,0.8,1,1.3,1.9,1.3c1.1,0,2.1,0.6,2.7,1.6c0.7,1.3,2,2.1,3.4,2.1h2.7c1.5,0.1,2.8-0.8,3.4-2.1
	c0.5-1,1.5-1.6,2.7-1.6c0.8,0,1.6-0.5,1.9-1.3C73.8,97.5,72.7,96.1,71.4,96.1z M97.8,58.6h-7.4c-1-0.1-2,0.6-2.1,1.6s0.6,2,1.6,2.1
	c0.2,0,0.3,0,0.5,0h7.4c1,0.1,2-0.6,2.1-1.6s-0.6-2-1.6-2.1C98.1,58.6,97.9,58.6,97.8,58.6L97.8,58.6z M71.6,91.6h-15
	c-1,0.1-1.7,1.1-1.6,2.1c0.1,0.8,0.8,1.5,1.6,1.6h15.1c1,0,1.8-0.7,1.9-1.7v-0.1C73.5,92.4,72.7,91.6,71.6,91.6z"/>
<path class="st0" d="M64,0C28.7,0,0,28.7,0,64s28.7,64,64,64s64-28.7,64-64S99.3,0,64,0z M64,121.9C32,121.9,6.1,96,6.1,64
	S32,6.1,64,6.1S121.9,32,121.9,64S96,121.9,64,121.9L64,121.9z"/>
</svg>
